<svg xmlns="http://www.w3.org/2000/svg" viewBox="0 0 360 200" width="360" height="200" font-family="Nunito, system-ui, sans-serif">
  <!-- panel -->
  <rect x="6" y="12" width="348" height="182" rx="20" fill="#15112E"/>
  <rect x="6" y="6" width="348" height="182" rx="20" fill="#2E2566" stroke="#1E1B33" stroke-width="3"/>

  <!-- ===== current color + size preview (left) ===== -->
  <g transform="translate(24,26)">
    <rect x="0" y="0" width="78" height="140" rx="14" fill="#15112E" stroke="#1E1B33" stroke-width="2.5"/>
    <text x="39" y="20" text-anchor="middle" fill="#A8A3D6" font-weight="700" font-size="11" letter-spacing="1">COLOR</text>
    <rect x="14" y="28" width="50" height="44" rx="11" fill="#FB5E7E" stroke="#1E1B33" stroke-width="3"/>
    <text x="39" y="94" text-anchor="middle" fill="#A8A3D6" font-weight="700" font-size="11" letter-spacing="1">SIZE</text>
    <!-- brush size dots -->
    <circle cx="20" cy="118" r="3" fill="#FFFFFF" stroke="#1E1B33" stroke-width="2"/>
    <circle cx="33" cy="118" r="5" fill="#FFFFFF" stroke="#1E1B33" stroke-width="2"/>
    <circle cx="48" cy="118" r="7.5" fill="#FB5E7E" stroke="#1E1B33" stroke-width="2.5"/>
  </g>

  <!-- ===== swatch grid 8 x 3 (right) ===== -->
  <g transform="translate(120,30)">
    <!-- row 1 -->
    <g>
      <rect x="0"   y="0" width="26" height="26" rx="7" fill="#FFFFFF" stroke="#1E1B33" stroke-width="2.5"/>
      <rect x="29"  y="0" width="26" height="26" rx="7" fill="#C1C1C1" stroke="#1E1B33" stroke-width="2.5"/>
      <rect x="58"  y="0" width="26" height="26" rx="7" fill="#EF4444" stroke="#1E1B33" stroke-width="2.5"/>
      <rect x="87"  y="0" width="26" height="26" rx="7" fill="#F97316" stroke="#1E1B33" stroke-width="2.5"/>
      <rect x="116" y="0" width="26" height="26" rx="7" fill="#FACC15" stroke="#1E1B33" stroke-width="2.5"/>
      <rect x="145" y="0" width="26" height="26" rx="7" fill="#84CC16" stroke="#1E1B33" stroke-width="2.5"/>
      <rect x="174" y="0" width="26" height="26" rx="7" fill="#22C55E" stroke="#1E1B33" stroke-width="2.5"/>
      <rect x="203" y="0" width="26" height="26" rx="7" fill="#14B8A6" stroke="#1E1B33" stroke-width="2.5"/>
    </g>
    <!-- row 2 -->
    <g transform="translate(0,37)">
      <rect x="0"   y="0" width="26" height="26" rx="7" fill="#000000" stroke="#1E1B33" stroke-width="2.5"/>
      <rect x="29"  y="0" width="26" height="26" rx="7" fill="#4B4B4B" stroke="#1E1B33" stroke-width="2.5"/>
      <rect x="58"  y="0" width="26" height="26" rx="7" fill="#7F1D1D" stroke="#1E1B33" stroke-width="2.5"/>
      <rect x="87"  y="0" width="26" height="26" rx="7" fill="#9A3412" stroke="#1E1B33" stroke-width="2.5"/>
      <rect x="116" y="0" width="26" height="26" rx="7" fill="#854D0E" stroke="#1E1B33" stroke-width="2.5"/>
      <rect x="145" y="0" width="26" height="26" rx="7" fill="#3F6212" stroke="#1E1B33" stroke-width="2.5"/>
      <rect x="174" y="0" width="26" height="26" rx="7" fill="#166534" stroke="#1E1B33" stroke-width="2.5"/>
      <rect x="203" y="0" width="26" height="26" rx="7" fill="#115E59" stroke="#1E1B33" stroke-width="2.5"/>
    </g>
    <!-- row 3 -->
    <g transform="translate(0,74)">
      <rect x="0"   y="0" width="26" height="26" rx="7" fill="#38BDF8" stroke="#1E1B33" stroke-width="2.5"/>
      <rect x="29"  y="0" width="26" height="26" rx="7" fill="#2563EB" stroke="#1E1B33" stroke-width="2.5"/>
      <rect x="58"  y="0" width="26" height="26" rx="7" fill="#8B5CF6" stroke="#1E1B33" stroke-width="2.5"/>
      <rect x="87"  y="0" width="26" height="26" rx="7" fill="#D946EF" stroke="#1E1B33" stroke-width="2.5"/>
      <rect x="116" y="0" width="26" height="26" rx="7" fill="#FB7185" stroke="#1E1B33" stroke-width="2.5"/>
      <rect x="145" y="0" width="26" height="26" rx="7" fill="#F472B6" stroke="#1E1B33" stroke-width="2.5"/>
      <rect x="174" y="0" width="26" height="26" rx="7" fill="#A16207" stroke="#1E1B33" stroke-width="2.5"/>
      <rect x="203" y="0" width="26" height="26" rx="7" fill="#FBE8C0" stroke="#1E1B33" stroke-width="2.5"/>
    </g>
    <!-- selected ring on coral (row3 col5) -->
    <rect x="112" y="70" width="34" height="34" rx="10" fill="none" stroke="#FFFFFF" stroke-width="3"/>
  </g>
</svg>
